<svg id="Layer_1" data-name="Layer 1" xmlns="http://www.w3.org/2000/svg" viewBox="0 0 125.4 247.75"><defs><style>.cls-1{fill:#b4fff4;}</style></defs><title>rocket</title><path class="cls-1" d="M180.61,187.66,162.33,157.5c3.39-11.64,6-24.72,6-37.48q0-2.52-.14-5c-1.88-33.69-14.89-45.75-24.6-55.45C139,54.93,135.5,51,133,45.36l-.13-.28A10.6,10.6,0,0,0,137,43.71a5.78,5.78,0,0,0,2.71-5.11l-.52-1.21c-.8-.8-3.12-1.28-6.88-1.44a21.24,21.24,0,0,1,.07-6.5c.15-1.16.15-1.16,1.8-1.35h.33a2.38,2.38,0,0,0,2-1.27c.65-1.31-.21-2.81-.72-3.71l-.16-.28-.23-.58c-2.62-6.45-4-11-4-13.49,0-3.24-.78-4.06-1.37-4.4a1.62,1.62,0,0,0-1.64,0c-.34.2-1.4.8-1.4,4.4,0,1.66-.7,5.38-4,13.63l-.17.42-.17.3a5.8,5.8,0,0,0-1,2.68,2.33,2.33,0,0,0,.24,1,2.39,2.39,0,0,0,2,1.27h.33c1.65.19,1.65.19,1.8,1.35a31.73,31.73,0,0,1,.31,4,14.77,14.77,0,0,1-.21,2.54c-3.77.16-6.1.64-6.91,1.44l-.52,1.21a5.78,5.78,0,0,0,2.71,5.11,10.59,10.59,0,0,0,4.1,1.37l-.13.3C123,51,119,55.07,114.32,59.72c-9.7,9.69-22.69,21.75-24.56,55.28q-.14,2.5-.14,5c0,12.76,2.66,25.84,6,37.48L77.38,187.66,66.3,251.89H78.81l11.69-40.8,19.63-16.45h0l.71.28a20.82,20.82,0,0,0,2.16.7c.34,2,.72,4.17,1,5.49.19,1,.66,3.5,9.86,4.14v46.6h10.3V205.32c9.66-.58,10.13-3.12,10.31-4.12.27-1.34.64-3.49,1-5.53a21.33,21.33,0,0,0,2.15-.7l.42-.18,19.48,16.32L179.2,251.9h12.5Z" transform="translate(-66.3 -4.15)"/></svg>